HIERARCHY
ROOT hip
{
  OFFSET 0 0 0
  CHANNELS 6 Xposition Yposition Zposition Zrotation Yrotation Xrotation
  JOINT abdomen
  {
    OFFSET 0 20.6881 -0.73152
    CHANNELS 3 Zrotation Xrotation Yrotation
    JOINT chest
    {
      OFFSET 0 11.7043 -0.48768
      CHANNELS 3 Zrotation Xrotation Yrotation
      JOINT neck
      {
        OFFSET 0 22.1894 -2.19456
        CHANNELS 3 Zrotation Xrotation Yrotation
        JOINT head
        {
          OFFSET -0.24384 7.07133 1.2192
          CHANNELS 3 Zrotation Xrotation Yrotation
          JOINT leftEye
          {
            OFFSET 4.14528 8.04674 8.04672
            CHANNELS 3 Zrotation Xrotation Yrotation
            End Site
            {
              OFFSET 1 0 0
            }
          }
          JOINT rightEye
          {
            OFFSET -3.6576 8.04674 8.04672
            CHANNELS 3 Zrotation Xrotation Yrotation
            End Site
            {
              OFFSET 1 0 0
            }
          }
        }
      }
      JOINT rCollar
      {
        OFFSET -2.68224 19.2634 -4.8768
        CHANNELS 3 Zrotation Xrotation Yrotation
        JOINT rShldr
        {
          OFFSET -8.77824 -1.95073 1.46304
          CHANNELS 3 Zrotation Xrotation Yrotation
          JOINT rForeArm
          {
            OFFSET -28.1742 -1.7115 0.48768
            CHANNELS 3 Zrotation Xrotation Yrotation
            JOINT rHand
            {
              OFFSET -22.5879 0.773209 7.07136
              CHANNELS 3 Zrotation Xrotation Yrotation
              JOINT rThumb1
              {
                OFFSET -1.2192 -0.487915 3.41376
                CHANNELS 3 Zrotation Xrotation Yrotation
                JOINT rThumb2
                {
                  OFFSET -3.37035 -0.52449 3.41376
                  CHANNELS 3 Zrotation Xrotation Yrotation
                  End Site
                  {
                    OFFSET -1.78271 -1.18214 1.43049
                  }
                }
              }
              JOINT rIndex1
              {
                OFFSET -7.75947 0.938293 5.60832
                CHANNELS 3 Zrotation Xrotation Yrotation
                JOINT rIndex2
                {
                  OFFSET -2.54057 -0.884171 1.56538
                  CHANNELS 3 Zrotation Xrotation Yrotation
                  End Site
                  {
                    OFFSET -1.62519 -0.234802 1.16502
                  }
                }
              }
              JOINT rMid1
              {
                OFFSET -8.24714 1.18213 3.41376
                CHANNELS 3 Zrotation Xrotation Yrotation
                JOINT rMid2
                {
                  OFFSET -3.10165 -0.590103 1.0647
                  CHANNELS 3 Zrotation Xrotation Yrotation
                  End Site
                  {
                    OFFSET -2.48547 -0.328903 0.83742
                  }
                }
              }
              JOINT rRing1
              {
                OFFSET -8.82822 0.546677 1.51678
                CHANNELS 3 Zrotation Xrotation Yrotation
                JOINT rRing2
                {
                  OFFSET -2.60934 -0.819778 -0.0198488
                  CHANNELS 3 Zrotation Xrotation Yrotation
                  End Site
                  {
                    OFFSET -2.33842 -0.294052 0.168128
                  }
                }
              }
              JOINT rPinky1
              {
                OFFSET -8.27202 -0.0477905 -0.4584
                CHANNELS 3 Zrotation Xrotation Yrotation
                JOINT rPinky2
                {
                  OFFSET -1.82734 -0.647385 -0.700984
                  CHANNELS 3 Zrotation Xrotation Yrotation
                  End Site
                  {
                    OFFSET -1.69225 -0.51767 -0.607171
                  }
                }
              }
            }
          }
        }
      }
      JOINT lCollar
      {
        OFFSET 2.68224 19.2634 -4.8768
        CHANNELS 3 Zrotation Xrotation Yrotation
        JOINT lShldr
        {
          OFFSET 8.77824 -1.95073 1.46304
          CHANNELS 3 Zrotation Xrotation Yrotation
          JOINT lForeArm
          {
            OFFSET 28.1742 -1.7115 0.48768
            CHANNELS 3 Zrotation Xrotation Yrotation
            JOINT lHand
            {
              OFFSET 22.5879 0.773209 7.07136
              CHANNELS 3 Zrotation Xrotation Yrotation
              JOINT lThumb1
              {
                OFFSET 1.2192 -0.487915 3.41376
                CHANNELS 3 Zrotation Xrotation Yrotation
                JOINT lThumb2
                {
                  OFFSET 3.37035 -0.52449 3.41376
                  CHANNELS 3 Zrotation Xrotation Yrotation
                  End Site
                  {
                    OFFSET 1.78271 -1.18214 1.43049
                  }
                }
              }
              JOINT lIndex1
              {
                OFFSET 7.75947 0.938293 5.60832
                CHANNELS 3 Zrotation Xrotation Yrotation
                JOINT lIndex2
                {
                  OFFSET 2.54057 -0.884171 1.56538
                  CHANNELS 3 Zrotation Xrotation Yrotation
                  End Site
                  {
                    OFFSET 1.62519 -0.234802 1.16502
                  }
                }
              }
              JOINT lMid1
              {
                OFFSET 8.24714 1.18213 3.41376
                CHANNELS 3 Zrotation Xrotation Yrotation
                JOINT lMid2
                {
                  OFFSET 3.10165 -0.590103 1.0647
                  CHANNELS 3 Zrotation Xrotation Yrotation
                  End Site
                  {
                    OFFSET 2.48547 -0.328903 0.83742
                  }
                }
              }
              JOINT lRing1
              {
                OFFSET 8.82822 0.546677 1.51678
                CHANNELS 3 Zrotation Xrotation Yrotation
                JOINT lRing2
                {
                  OFFSET 2.60934 -0.819778 -0.0198488
                  CHANNELS 3 Zrotation Xrotation Yrotation
                  End Site
                  {
                    OFFSET 2.33842 -0.294052 0.168128
                  }
                }
              }
              JOINT lPinky1
              {
                OFFSET 8.27202 -0.0477905 -0.4584
                CHANNELS 3 Zrotation Xrotation Yrotation
                JOINT lPinky2
                {
                  OFFSET 1.82734 -0.647385 -0.700984
                  CHANNELS 3 Zrotation Xrotation Yrotation
                  End Site
                  {
                    OFFSET 1.69225 -0.51767 -0.607171
                  }
                }
              }
            }
          }
        }
      }
    }
  }
  JOINT rButtock
  {
    OFFSET -8.77824 4.35084 1.2192
    CHANNELS 3 Zrotation Xrotation Yrotation
    JOINT rThigh
    {
      OFFSET 0 -1.70687 -2.19456
      CHANNELS 3 Zrotation Xrotation Yrotation
      JOINT rShin
      {
        OFFSET 0 -36.8199 0.73152
        CHANNELS 3 Zrotation Xrotation Yrotation
        JOINT rFoot
        {
          OFFSET 0.73152 -45.1104 -5.12064
          CHANNELS 3 Zrotation Xrotation Yrotation
          End Site
          {
            OFFSET -1.1221 -3.69964 12.103
          }
        }
      }
    }
  }
  JOINT lButtock
  {
    OFFSET 8.77824 4.35084 1.2192
    CHANNELS 3 Zrotation Xrotation Yrotation
    JOINT lThigh
    {
      OFFSET 0 -1.70687 -2.19456
      CHANNELS 3 Zrotation Xrotation Yrotation
      JOINT lShin
      {
        OFFSET 0 -36.8199 0.73152
        CHANNELS 3 Zrotation Xrotation Yrotation
        JOINT lFoot
        {
          OFFSET -0.73152 -45.1104 -5.12064
          CHANNELS 3 Zrotation Xrotation Yrotation
          End Site
          {
            OFFSET 1.1221 -3.69964 12.103
          }
        }
      }
    }
  }
}
MOTION
Frames:	4
Frame Time:	0.03333
0.02200976014137268 61.836302280426025 -0.04004663787782192 -6.452201378702368 5.219422669840882 2.5064600055675927 -2.3304981108487857 14.738388804275907 3.882466073776954 2.572840052790008 -9.708612740042776 1.2027763558802642 -4.8375233145701975 15.290696683583356 -3.4872896845334105 8.424816360062703 -24.899714166469945 -5.171622017821371 0.037714196843121224 0.015874106683050105 -0.019952516690127854 0.0029409300462193964 -0.033229617364052506 -0.00026005411656294643 0.06375700111707905 -0.054880783424464015 0.00563346532223247 49.306964863592796 30.144472996150167 15.771299529436718 -23.84890663813641 -29.452704606822103 66.44015971730046 -4.740092373607258 -11.27113547967273 -5.148126167076527 0.01457178170739908 -0.010653280836221607 0.03759256077895682 -0.0003540492589299578 0.010252887676556055 -0.018782966856682175 -0.026951286134635627 -0.013439464409057902 0.018684889609069024 7.6855704720402365 5.424926413380464 0.4191659345993322 0.009149518640908096 -0.016503311179911082 0.0029778023955668873 2.9127059970216114 0.9696100260370135 0.09488589508431627 -0.00898116515003786 0.000911883615049593 0.0304636041936089 10.199960327234214 0.6991104691598549 0.02821996709253905 -0.04576557581196466 0.016871207580166185 -0.0110271136313608 2.1682260496607997 -0.7362370296105171 -0.1835149366825042 -0.003062912955927593 0.03126134894432524 0.004083439267462702 -58.45157046405354 32.14967310249334 -25.652991824368556 23.008311841888354 -27.442057424615847 -62.39420836998419 5.096714479420195 -13.612596044139385 4.102444695715085 0.001563526350551122 0.031745065075779656 -0.022081467978122316 -0.026068164019294134 -0.017148657334771507 0.015370273510055881 -0.00191832266142155 -0.011438645869067291 -0.008876311074107586 -7.710901082350875 5.496470937389055 -0.4304818771871773 -0.022054147221442267 -0.027227161744080672 0.008130859959224164 -2.8985521375140526 0.9427798690384399 -0.0799846234505302 0.016361718156765546 -0.005936501605798895 -0.06985725384018635 -10.223336649668584 0.7060953514423979 -0.05733783725667032 -0.027123915163843732 -0.010970644508789191 -0.014490993376122521 -2.245107726175521 -0.7257777154745532 0.15546871252697736 -0.03714843840034732 0.017691630693361073 0.014780556044334038 -31.766417527785585 -35.61749674789221 -27.727540548902162 -5.3397838365080235 62.119218123810306 6.29637786986452 -4.743397758278721 -10.204089176587487 -10.372866566073087 0.010271590655494253 0.01790843583865609 0.056080762284270634 37.73730401341361 -34.27001312277 31.07018560983492 5.382689377326751 63.33766923022722 -6.552423305714903 4.987049815880116 -10.10251231079835 13.882467917303991
0.005230959504842758 62.805843353271484 -0.1682561356574297 -6.883610213945536 5.274438989831689 1.8833205032461733 -2.399313760840545 14.842499670247118 3.8168574110439266 2.563952269132529 -9.775242089169897 1.1288975080011157 -4.938651522308229 15.431135618202573 -3.567856034661942 8.37770513026254 -24.859380191873726 -5.211331456995356 0.02804726469215822 0.0027204430020749226 -0.05384829094166817 -0.0007451309497660786 0.015992727859026185 -0.027971385559347608 0.08062698139762874 -0.08815911924720575 0.037823346467709205 49.39378339813283 30.211736699096452 16.255097196274352 -24.05273314334793 -29.436605850948386 66.3857367699938 -4.910989683056501 -11.620482580245957 -5.349186018787369 0.0494920843344413 -0.07813261498903859 0.07244237371933039 0.00020671994409866717 0.043806191974243694 0.0002484481310592138 -0.045558322259337085 0.020342651225825164 0.01272731046637829 7.843809733410153 5.45403283764165 0.3795611894187191 0.05532346506004547 -0.02205814928540907 -0.03043238809466783 2.9366342841182815 0.9485060221621435 0.08142919511977467 0.014218319417850919 0.0007192509361140772 -0.026246389267949154 10.40330018146737 0.7379434563251095 0.07727451911370285 -0.05818984999477652 0.04727515434024326 -0.08007218861012388 2.175478856785707 -0.7285213170867827 -0.17420570900889415 0.0005121574660451748 -0.00767035579877721 0.03463327459934301 -58.78150958210018 32.37531523191388 -25.410385212596996 23.198542855556962 -27.51981229812727 -62.385636482575826 4.910332277348887 -13.35477091712339 4.2647171837898945 0.019640155597518773 0.06551202622844175 -0.03311649235592417 0.002543818579006624 0.020430429828830407 0.04108753656074061 -0.007994202814971018 -0.010424576220731962 0.031916086609294424 -7.801459999235136 5.6080813510689405 -0.42775996676164785 0.013251847650294114 -0.061007943357641474 -0.002386137258714533 -2.903806473976496 0.9417148931364469 -0.0984135944091353 0.03428189338305759 -0.052473141742034525 -0.05475960092754918 -10.349174347389605 0.6762696228842446 -0.03487121064238276 -0.0362931773203214 -0.03460224526338706 0.013345335864558664 -2.279621952712065 -0.6637997251722112 0.13362896921245002 -0.023980634093356098 0.019769982552601907 -0.0261681889380378 -31.461142222831864 -35.52499549596273 -27.06799699207822 -4.803861154132613 61.988406340826224 5.763739227819416 -4.845696489685764 -10.292739909372376 -10.337446912584694 -0.004698583179586975 0.009382478784415777 0.06560396697797247 37.9687893696691 -34.25587121609349 30.685785978441185 5.2050630508845765 63.3144192662925 -6.398492186163972 4.9238919103986545 -9.969892235231505 13.78742412745597
0.13592857867479324 53.03909778594971 -0.44387453235685825 -16.760534609949882 -28.25332509611516 12.070725235238612 14.259724024599535 8.174862172291501 4.235843412847311 1.5486328029007919 -6.95701383006884 0.8962939217124505 -0.588417595345425 11.77296228459826 5.623686625775127 4.038395023660113 -23.15183460691783 11.87576602311706 0.015375369471506946 -0.006112805863749849 -0.04337504962309986 0.1358225805139348 -0.08522395217309855 -0.16693230459477104 0.2681889252252845 -0.07152179228525961 0.08811965889649306 106.16059891094352 45.656911771137985 -56.252468117362874 -26.948828974081714 -42.82470894499508 89.20470893790022 -5.582848497840798 -48.82446664024476 -9.909453598813355 0.07022768488095377 -0.1125898521346951 0.2237663353588736 0.12161375932789845 0.0527554473342529 -0.036074924761891725 -0.12560963343576748 0.12346964979143785 0.1737962445042372 7.568466024946722 5.367466593214085 0.44680915091340184 0.09496236118650869 0.019994845186683423 -0.05966682504193889 2.9106678258845973 0.8865895035623317 0.01966296736212956 -0.04229391872289411 -0.016738552499879843 0.031790902048412784 10.122338642411604 0.7459596438114715 0.24065411148386234 0.02479684169917262 0.024598392687272014 0.0992263735801536 2.3862002245209437 -0.8875123795130768 -0.16356043230060616 -0.040571003504758396 -0.0823869157074574 -0.1212837224527693 -51.1049336154232 11.877898749685396 -43.38885183458687 13.24091337120657 -8.157475925759234 -24.759273524303435 2.3100837426366754 37.79129324370798 -6.984019117386601 0.08670791749198961 0.1562910566308763 0.07569156941269951 -0.11153229339125384 0.0016613101134733748 0.04297021417243116 0.222318281893978 0.09907610941841333 0.015347861951841778 -7.981730889546575 5.642318528057276 -0.4017696562267213 0.20026218700140522 -0.14707985284402653 -0.03153530356306621 -2.871004917374333 1.1313986378978096 -0.13772666916784776 -0.0607425798362159 -0.10556014673572395 -0.10520262902135609 -10.113009457779013 0.8060791289684824 -0.07170727460990778 -0.08661705062962331 -0.12131251063290385 -0.053161283300913305 -2.099075933843121 -0.6484947653460936 0.11489898968268833 -0.10118114170409952 -0.044608445717029294 0.011581012624579745 -10.55813630108333 12.198898857655779 -2.7389487593008375 0.7746612192817758 32.751467409884825 1.4494594166475587 -9.609248855544722 -17.93168665636446 -31.67942140832713 0.1316807911538361 0.09280005936545752 0.15236423146664788 86.94862232296414 -53.4989080893235 76.12632418686233 4.487467154983758 79.59662719092992 -4.367679724206898 -1.4056003173876739 -0.4589361517847595 -7.4158104432232905
0.3604878671467304 50.33515691757202 -0.04506497643887997 -15.59018340321549 -28.51879747368063 13.585037938385677 14.006663808303271 7.679477089526939 2.854340749903383 1.2171854937080524 -7.246988657508085 1.2593862443817994 0.3072366631429978 11.474932956580277 7.600706225376475 3.291883521908046 -21.955123992629066 14.036469046293915 0.17428070768763207 -0.11753032006043575 -0.003375327409389563 0.126665111105946 -0.369470652137083 -0.19927490450122104 0.2772813477535995 -0.04067278933164745 0.00044847128812009504 105.23206201403697 46.85785027252299 -56.32066072603628 -26.82000819124069 -43.70118272495321 91.5135246132288 -4.629708832657036 -50.0900597123131 -9.216407110336855 0.14767925530454803 -0.07274402262072166 0.4236158562044484 0.10271579983323675 -0.10630861273879569 -0.06534281896392527 -0.14990803140808784 0.11896439298187396 0.03498625664121516 7.634512246673452 5.433610572023312 0.4336730963138806 0.026483738341607097 -0.07423305722063733 -0.0403943790816901 2.878161888407449 1.135101881088426 0.14777015551744738 -0.20052488248018627 0.0016370576058345404 0.06622017810715457 10.437989004714574 0.6622233388561135 0.23047606240348553 -0.08694169138850387 0.004668327575997934 0.3458913716987445 2.482611119420024 -0.9511082175142126 0.04385789864069481 -0.10323606814892132 0.29632426200513884 -0.08612105483189741 -46.42810160013495 16.83028279420676 -37.19102889869058 14.212094554196097 -6.490669857881526 -23.924540737910544 0.8280624663381387 38.65370707925964 -5.663338862114813 0.24253911029265365 0.1283870658287297 -0.14530741875440822 0.10542951936784745 0.02798512597896697 0.11611961919256365 0.2699626933362251 0.053351194576351395 0.19498226401000027 -7.766796789197321 5.45653482131199 -0.36405249785626465 -0.13774546552827852 0.15294965338371203 -0.21029816281096048 -3.0156422838989925 0.8433905847744109 -0.23214180146774885 -0.19233337791165178 -0.22485100141558337 -0.12052695883707305 -10.03972067421113 0.6513720358948144 -0.35248621282708276 0.10873991328937561 -0.056298501244491234 -0.05588844977045246 -2.4122921874806273 -0.7429887783267805 -0.013207611503247703 -0.12030604490610546 0.13102085080571008 -0.12861697106340936 -10.058845203887167 11.384308299125255 -2.515591114714254 0.9474460621803222 32.58433268089461 2.1008236084969982 -9.004158981878708 -18.11526677332877 -32.357201570235006 0.06206096642858703 0.21365409355032428 0.03395265692072182 84.8384148883212 -52.26954575570749 72.02804676031461 2.745215030977501 78.73262875149082 -2.6673656020347534 -1.7635295506530222 0.38291219761940365 -7.579186860622703
